# xmcd
#
# Track frame offsets: 
#        150
#        21744
#        44560
#        61592
#        88845
#        108429
#        131665
#        153865
#        175185
#        197362
#
# Disc length: 2904 seconds
#
# Revision: 0
# Processed by: cddbd v1.5.2PL0 Copyright (c) Steve Scherf et al.
# Submitted via: ExactAudioCopy v0.99pb5
#
DISCID=810b560a
DTITLE=Carabao - Hak Huajai Yang Rak Khwai 2
DYEAR=1900
DGENRE=EthnoRock
TTITLE0=Lom Haijai Thai
TTITLE1=Khonthai Rak Kan
TTITLE2=Luk Raw
TTITLE3=Ankor Wat
TTITLE4=Hua Jai Ba Bin
TTITLE5=Samcha Carabao
TTITLE6=Taohu Yi
TTITLE7=Moradok Khao Thai
TTITLE8=Khun Khao Yayeuak
TTITLE9=Lung Fang
EXTD=
EXTT0=
EXTT1=
EXTT2=
EXTT3=
EXTT4=
EXTT5=
EXTT6=
EXTT7=
EXTT8=
EXTT9=
PLAYORDER=
